<!-- Generated by IcoMoon.io -->
<svg version="1.1" xmlns="http://www.w3.org/2000/svg" width="1024" height="1024" viewBox="0 0 1024 1024">
<title></title>
<g id="icomoon-ignore">
</g>
<path d="M459.475 578.982s1.205-0.964 0.723-2.65c-89.389-195.403-211.305-343.076-211.305-343.076s-66.476 63.102-61.705 126.229c2.578 47.947 38.43 76.137 38.43 76.137 57.97 56.139 197.957 127.94 230.725 144.083 0 0 2.168 0 3.132-0.723zM437.79 626.688c-0.964-1.687-3.132-1.687-3.132-1.687l-233.279 7.71c25.347 45.297 67.994 80.233 112.327 70.114 30.84-7.71 99.991-56.38 122.88-72.764 1.928-1.687 1.205-3.373 1.205-3.373zM441.163 606.208c1.205-1.687-0.964-3.373-0.964-3.373-102.4-69.15-300.984-175.887-300.984-175.887-18.095 56.38 6.216 101.677 6.216 101.677 25.371 53.007 73.704 69.15 73.704 69.15 22.287 9.397 44.454 10.12 44.454 10.12 3.614 0.964 139.023 0 175.164 0 1.446 0 2.409-1.687 2.409-1.687zM534.408 560.188c1.687 0.723 3.373-1.687 3.373-1.687 22.167-32.527 122.88-181.911 143.36-273.227 0 0 11.083-44.333 0-74.234 0 0-14.456-56.332-76.86-71.704 0 0-17.83-4.265-36.623-6.819 0 0-69.15 88.787-35.9 425.020h0.723c0 2.65 1.928 2.65 1.928 2.65zM588.86 625.001s-1.687 0-2.409 1.687c0 0 0 2.65 0.723 3.373 22.167 16.384 90.594 63.368 122.88 72.764 0 0 60.717 20.48 112.76-69.15l-233.954-8.674zM565.007 578.982s1.687 0.723 3.373 0c33.25-16.143 172.514-87.221 230.581-143.36 0 0 35.9-29.154 38.31-76.86 3.614-64.813-61.44-125.506-61.44-125.506s-121.916 146.709-211.546 342.353h0.723s-1.687 1.687 0 3.373zM884.254 426.948c-14.456 7.951-29.395 15.179-43.369 24.094-18.312 9.638-36.141 19.757-54.212 29.877-30.6 17.107-60.958 34.696-91.076 52.525-11.565 5.783-22.167 13.252-33.491 19.757-6.024 3.855-26.504 16.866-31.081 18.552-7.469 6.264-16.625 9.879-24.094 15.902-8.192 3.614-14.697 10.36-22.408 14.456-4.337 4.096 1.205 6.264 5.060 5.060h181.188c30.359-4.819 59.753-17.83 81.197-40.237 8.674-8.915 16.143-19.275 22.408-30.118 6.264-10.601 10.601-22.408 13.252-34.214 1.687-6.746 2.65-13.734 3.614-20.721 0-7.469 1.687-14.697 0-22.167 0.241-5.301-0.482-10.601-1.928-15.661-1.205-5.783-2.168-12.77-4.819-17.107zM489.592 560.188c-1.687 0.723-3.373-1.687-3.373-1.687-22.167-32.527-122.639-181.911-143.119-273.227 0 0-11.083-44.333 0-74.234 0 0 14.456-56.332 76.619-71.704 0 0 17.83-4.265 36.623-6.819 0 0 69.15 88.787 35.9 425.020h-0.723c0 2.65-1.928 2.65-1.928 2.65zM891.964 891.482v-122.157h-28.913v122.157zM761.374 818.718h76.86v21.444h-76.86c0 22.167 9.397 29.877 31.563 29.877h45.297v21.444h-46.984c-15.42 0-28.19-0.964-40.96-10.36-13.734-10.12-20.48-26.504-20.48-48.67 0-42.647 19.516-63.127 62.404-63.127h46.020v21.444h-45.297c-20.48 0-30.6 9.397-31.563 27.949zM547.9 769.325l30.84 93.967 25.54-93.967h33.25l29.154 93.967 28.913-93.967h28.19l-40.96 122.157h-34.214l-28.19-91.317-24.576 91.317h-33.491l-44.333-122.157zM478.991 769.325l56.139 122.157h-30.6l-12.047-29.154h-57.585l-11.806 29.154h-29.395l55.898-122.157h29.395zM443.814 841.126h39.273l-19.998-46.984-19.275 46.984zM300.936 842.812c0 21.203 6.746 30.6 29.636 30.6 23.13 0 29.877-9.397 29.877-30.6v-73.487h27.708v74.21c0 15.42-1.928 26.504-7.71 32.527-10.842 11.806-26.744 17.107-49.875 17.107-22.889 0-38.792-5.301-49.634-17.107-6.264-6.746-7.71-17.107-7.71-32.527v-74.21h27.708v73.487zM222.63 818.718v-49.393h27.708v122.157h-27.708v-50.357h-61.97v50.357h-27.853v-122.157h27.853v49.393z" fill="white"></path>
</svg>
