<?xml version="1.0" encoding="utf-8"?>
<!-- Generator: Adobe Illustrator 25.0.1, SVG Export Plug-In . SVG Version: 6.00 Build 0)  -->
<svg version="1.1" id="arte" xmlns="http://www.w3.org/2000/svg" xmlns:xlink="http://www.w3.org/1999/xlink" x="0px" y="0px"
	 viewBox="0 0 80.7 56.18" style="enable-background:new 0 0 80.7 56.18;" xml:space="preserve">
<style type="text/css">
	.st0{fill-rule:evenodd;clip-rule:evenodd;fill:#0567A5;}
	.st1{fill-rule:evenodd;clip-rule:evenodd;fill:#FFFFFF;}
	.st2{clip-path:url(#SVGID_2_);}
	.st3{fill:#0082CA;}
	.st4{fill:#FFFFFF;}
</style>
<g>
	<g>
		<g>
			<rect x="52.37" y="26.22" class="st0" width="20.53" height="0.83"/>
			<rect x="52.37" y="33.76" class="st0" width="20.53" height="0.61"/>
			<polygon class="st0" points="69.47,29.94 68.99,29.94 68.99,29.72 70.37,28.28 70.5,28.28 70.5,29.24 71.66,29.24 71.66,29.94 
				70.5,29.94 70.5,31.17 70.5,31.26 70.5,31.35 70.54,31.39 70.54,31.48 70.54,31.52 70.58,31.56 70.58,31.61 70.63,31.65 
				70.67,31.7 70.71,31.74 70.75,31.74 70.84,31.79 70.88,31.79 70.97,31.79 71.01,31.79 71.05,31.79 71.1,31.79 71.14,31.79 
				71.18,31.79 71.23,31.74 71.27,31.74 71.31,31.74 71.36,31.74 71.4,31.74 71.44,31.7 71.48,31.7 71.53,31.7 71.57,31.65 
				71.61,31.65 71.66,31.61 71.66,32.4 71.61,32.4 71.53,32.44 71.48,32.44 71.4,32.49 71.36,32.49 71.27,32.49 71.23,32.53 
				71.14,32.53 71.1,32.53 71.01,32.53 70.97,32.57 70.88,32.57 70.84,32.57 70.75,32.57 70.71,32.57 70.67,32.57 70.5,32.57 
				70.37,32.53 70.24,32.53 70.11,32.49 69.98,32.44 69.9,32.4 69.81,32.31 69.72,32.27 69.68,32.18 69.59,32.05 69.55,31.96 
				69.55,31.83 69.51,31.65 69.47,31.52 69.47,31.35 69.47,31.17 			"/>
			<path class="st0" d="M66.37,30.56h1.29v-0.09v-0.09l-0.04-0.04v-0.09l-0.04-0.04l-0.04-0.04l-0.04-0.09l-0.04-0.04l-0.04-0.04
				h-0.04l-0.04-0.04l-0.04-0.04h-0.04h-0.09l-0.04-0.04h-0.04h-0.09l-0.09,0.04h-0.04H66.8l-0.08,0.04l-0.04,0.04h-0.04l-0.04,0.04
				l-0.04,0.04l-0.04,0.09l-0.04,0.04l-0.04,0.04v0.09l-0.04,0.04v0.09V30.56z M68.65,32.13l-0.09,0.09l-0.09,0.04l-0.09,0.04
				l-0.08,0.04l-0.09,0.04h-0.09L68,32.44l-0.09,0.04h-0.09l-0.09,0.04h-0.13h-0.09l-0.09,0.04h-0.13h-0.09H67.1h-0.21l-0.17-0.04
				l-0.22-0.04l-0.17-0.04l-0.17-0.04l-0.13-0.09l-0.13-0.09l-0.17-0.13L65.64,32l-0.13-0.13l-0.09-0.18l-0.04-0.13l-0.04-0.17
				l-0.04-0.17l-0.04-0.18v-0.22v-0.17l0.04-0.18l0.04-0.18l0.04-0.13l0.04-0.18l0.09-0.13l0.13-0.13l0.09-0.09l0.13-0.13l0.13-0.09
				l0.17-0.09l0.13-0.04l0.17-0.04l0.17-0.04l0.21-0.04h0.17h0.21l0.17,0.04l0.17,0.04l0.17,0.04l0.13,0.09L68,29.46l0.17,0.09
				l0.08,0.13l0.13,0.13l0.09,0.13l0.09,0.13l0.04,0.18l0.09,0.18v0.18l0.04,0.22v0.22h-2.36v0.04v0.09v0.09v0.09l0.04,0.09
				l0.04,0.04l0.04,0.09l0.04,0.04l0.09,0.09l0.09,0.04l0.04,0.04l0.09,0.04l0.09,0.04h0.13l0.09,0.04h0.13h0.09h0.09h0.09h0.09
				l0.08-0.04h0.09l0.08-0.04h0.04L68,31.78h0.09l0.09-0.04l0.08-0.04l0.09-0.04l0.09-0.04l0.04-0.04l0.09-0.04l0.09-0.04V32.13z"/>
			<polygon class="st0" points="61.48,29.46 61.48,32.49 60.45,32.49 60.45,27.66 61.35,27.66 63.54,30.56 63.54,27.66 64.57,27.66 
				64.57,32.49 63.75,32.49 			"/>
			<rect x="53.31" y="27.66" class="st0" width="1.29" height="4.82"/>
			<polygon class="st0" points="55.51,29.59 55.63,29.24 55.33,29.02 55.68,29.02 55.76,28.76 55.89,29.02 56.19,29.02 55.94,29.24 
				56.02,29.59 55.76,29.37 			"/>
			<polygon class="st0" points="55.2,30.73 55.33,30.43 55.03,30.21 55.38,30.21 55.46,29.9 55.59,30.21 55.89,30.21 55.63,30.43 
				55.76,30.73 55.46,30.56 			"/>
			<polygon class="st0" points="55.46,31.78 55.55,31.48 55.29,31.26 55.63,31.26 55.72,30.95 55.81,31.26 56.15,31.26 55.89,31.48 
				55.98,31.78 55.72,31.56 			"/>
			<polygon class="st0" points="56.28,32.62 56.36,32.27 56.11,32.05 56.41,32.05 56.54,31.74 56.62,32.05 56.97,32.05 56.71,32.27 
				56.79,32.57 56.54,32.4 			"/>
			<polygon class="st0" points="57.31,32.97 57.44,32.62 57.18,32.4 57.48,32.4 57.57,32.09 57.7,32.4 58,32.4 57.74,32.62 
				57.83,32.97 57.57,32.75 			"/>
			<polygon class="st0" points="58.47,32.57 58.56,32.27 58.3,32.05 58.6,32.05 58.73,31.74 58.81,32.05 59.16,32.05 58.9,32.27 
				58.98,32.57 58.73,32.35 			"/>
			<polygon class="st0" points="59.2,31.78 59.29,31.43 59.03,31.21 59.37,31.21 59.46,30.91 59.54,31.21 59.89,31.21 59.63,31.43 
				59.72,31.78 59.46,31.56 			"/>
			<polygon class="st0" points="59.46,30.73 59.54,30.43 59.29,30.21 59.63,30.21 59.72,29.9 59.8,30.21 60.14,30.21 59.89,30.43 
				59.97,30.73 59.72,30.56 			"/>
			<polygon class="st0" points="59.11,29.55 59.2,29.24 58.94,29.02 59.24,29.02 59.37,28.72 59.46,29.02 59.8,29.02 59.5,29.24 
				59.63,29.55 59.37,29.37 			"/>
			<polygon class="st0" points="58.34,28.76 58.43,28.45 58.17,28.23 58.51,28.23 58.6,27.93 58.73,28.23 59.03,28.23 58.77,28.45 
				58.86,28.76 58.6,28.58 			"/>
			<polygon class="st0" points="57.31,28.54 57.4,28.19 57.14,27.97 57.44,27.97 57.57,27.71 57.65,27.97 58,27.97 57.74,28.19 
				57.83,28.5 57.57,28.32 			"/>
			<polygon class="st0" points="56.24,28.76 56.32,28.45 56.06,28.23 56.41,28.23 56.49,27.93 56.58,28.23 56.92,28.23 56.67,28.45 
				56.75,28.76 56.49,28.58 			"/>
			<polygon class="st0" points="57.7,31.56 57.83,31.21 57.57,31 57.87,31 58,30.69 58.08,31 58.43,31 58.17,31.21 58.26,31.56 
				58,31.35 			"/>
			<polygon class="st0" points="59.07,33.54 59.2,33.19 58.9,32.97 59.24,32.97 59.33,32.66 59.46,32.97 59.76,32.97 59.5,33.19 
				59.63,33.49 59.33,33.32 			"/>
			<polygon class="st0" points="62.55,13.9 63.37,13.9 64.14,13.94 64.91,14.07 65.69,14.2 66.46,14.38 67.19,14.56 67.92,14.82 
				68.65,15.08 69.34,15.39 70.02,15.74 70.71,16.13 71.36,16.53 71.96,16.97 72.56,17.45 73.16,17.93 73.72,18.46 74.23,18.98 
				74.75,19.55 75.22,20.12 75.69,20.74 76.12,21.39 76.51,22.05 76.9,22.71 77.2,23.41 77.54,24.11 77.8,24.86 78.06,25.6 
				78.27,26.35 78.44,27.14 78.57,27.93 78.66,28.72 78.7,29.5 73.89,29.5 73.8,28.98 73.76,28.41 73.63,27.88 73.5,27.36 
				73.38,26.83 73.16,26.3 72.99,25.82 72.77,25.34 72.52,24.86 72.26,24.38 71.96,23.94 71.66,23.5 71.36,23.1 71.01,22.67 
				70.67,22.31 70.28,21.92 69.9,21.57 69.51,21.22 69.08,20.91 68.65,20.61 68.18,20.34 67.75,20.08 67.28,19.86 66.76,19.64 
				66.29,19.47 65.77,19.29 65.26,19.16 64.74,19.03 64.18,18.94 63.67,18.85 63.11,18.81 62.55,18.81 61.99,18.81 61.43,18.85 
				60.92,18.94 60.36,19.03 59.84,19.16 59.33,19.29 58.86,19.47 58.34,19.64 57.87,19.86 57.4,20.08 56.92,20.34 56.49,20.61 
				56.06,20.91 55.63,21.22 55.25,21.57 54.86,21.92 54.47,22.27 54.13,22.67 53.79,23.06 53.44,23.5 53.14,23.89 52.89,24.38 
				52.63,24.81 52.37,25.3 52.16,25.78 51.94,26.26 51.77,26.79 51.64,27.31 51.51,27.84 51.38,28.36 51.3,28.89 51.25,29.46 
				46.4,29.46 46.49,28.67 46.57,27.88 46.7,27.09 46.87,26.3 47.09,25.56 47.34,24.81 47.6,24.07 47.9,23.37 48.25,22.67 
				48.63,22.01 49.02,21.35 49.45,20.74 49.92,20.12 50.39,19.51 50.91,18.94 51.43,18.41 51.98,17.89 52.58,17.41 53.19,16.97 
				53.79,16.53 54.43,16.13 55.08,15.74 55.76,15.39 56.45,15.08 57.18,14.82 57.91,14.56 58.64,14.38 59.41,14.2 60.19,14.07 
				60.96,13.94 61.73,13.9 			"/>
			<polygon class="st0" points="51.25,31.17 51.3,31.74 51.38,32.31 51.47,32.84 51.6,33.36 51.73,33.89 51.9,34.41 52.11,34.9 
				52.33,35.42 52.58,35.9 52.84,36.34 53.1,36.78 53.4,37.22 53.74,37.66 54.09,38.05 54.43,38.45 54.82,38.84 55.2,39.19 
				55.59,39.54 56.02,39.85 56.45,40.16 56.88,40.42 57.35,40.68 57.83,40.9 58.3,41.12 58.81,41.3 59.33,41.47 59.84,41.65 
				60.36,41.74 60.92,41.82 61.43,41.91 61.99,41.95 62.55,41.95 63.11,41.95 63.67,41.91 64.18,41.82 64.74,41.74 65.26,41.65 
				65.77,41.47 66.29,41.3 66.76,41.12 67.28,40.9 67.75,40.68 68.18,40.42 68.65,40.16 69.08,39.85 69.51,39.54 69.9,39.19 
				70.28,38.84 70.67,38.49 71.01,38.1 71.36,37.7 71.7,37.26 72,36.83 72.26,36.39 72.52,35.9 72.77,35.42 72.99,34.94 73.2,34.46 
				73.38,33.93 73.5,33.41 73.63,32.88 73.76,32.35 73.8,31.78 73.89,31.26 78.7,31.26 78.66,32.05 78.57,32.84 78.44,33.63 
				78.27,34.41 78.06,35.16 77.8,35.9 77.54,36.65 77.24,37.35 76.9,38.05 76.51,38.71 76.12,39.37 75.69,40.03 75.22,40.64 
				74.75,41.21 74.23,41.78 73.72,42.35 73.16,42.83 72.56,43.36 71.96,43.8 71.36,44.23 70.71,44.63 70.02,45.02 69.38,45.37 
				68.65,45.68 67.96,45.94 67.23,46.21 66.46,46.43 65.73,46.56 64.96,46.73 64.14,46.82 63.37,46.86 62.55,46.91 61.73,46.86 
				60.96,46.82 60.14,46.73 59.37,46.56 58.64,46.38 57.87,46.21 57.14,45.94 56.45,45.68 55.72,45.37 55.03,45.02 54.39,44.63 
				53.74,44.23 53.14,43.8 52.5,43.31 51.94,42.83 51.38,42.31 50.87,41.78 50.35,41.21 49.88,40.6 49.41,39.98 48.98,39.37 
				48.59,38.71 48.2,38.01 47.86,37.31 47.56,36.61 47.3,35.86 47.04,35.12 46.87,34.37 46.7,33.58 46.53,32.79 46.44,32 
				46.4,31.17 			"/>
			<polygon class="st1" points="51.12,23.5 51.21,23.54 51.3,23.59 51.34,23.67 51.38,23.72 51.43,23.81 51.47,23.89 51.47,23.94 
				51.51,24.02 51.51,24.11 51.51,24.2 51.51,24.29 51.51,24.38 51.51,24.46 51.47,24.51 51.43,24.59 51.43,24.68 51.34,24.81 
				51.3,24.9 51.21,24.99 51.12,25.03 51.04,25.12 51,25.17 50.87,25.21 50.78,25.21 50.69,25.25 50.57,25.25 50.48,25.25 
				50.39,25.25 50.27,25.25 50.18,25.21 50.05,25.17 49.96,25.12 49.84,25.03 49.75,24.99 49.66,24.9 49.58,24.81 49.49,24.73 
				49.45,24.64 49.41,24.55 49.36,24.46 49.32,24.33 49.32,24.24 49.32,24.16 49.32,24.02 49.32,23.94 49.36,23.81 49.41,23.72 
				49.45,23.63 49.49,23.54 49.53,23.45 49.62,23.37 49.66,23.32 49.71,23.28 49.79,23.19 49.84,23.19 49.92,23.15 50.01,23.1 
				50.09,23.1 50.14,23.1 50.22,23.06 50.31,23.1 50.39,23.1 50.48,23.1 50.57,23.15 50.31,23.63 50.27,23.59 50.22,23.59 
				50.18,23.59 50.14,23.59 50.09,23.59 50.09,23.63 50.05,23.63 50.01,23.63 50.01,23.67 49.96,23.67 49.92,23.72 49.88,23.76 
				49.88,23.81 49.84,23.85 49.84,23.89 49.79,23.94 49.79,23.98 49.79,24.02 49.79,24.11 49.79,24.16 49.84,24.2 49.84,24.24 
				49.88,24.29 49.88,24.33 49.92,24.38 49.96,24.42 50.01,24.46 50.09,24.51 50.14,24.55 50.18,24.59 50.27,24.64 50.35,24.68 
				50.39,24.68 50.48,24.73 50.52,24.73 50.57,24.73 50.65,24.73 50.69,24.73 50.74,24.73 50.78,24.68 50.82,24.68 50.87,24.64 
				50.91,24.59 50.95,24.59 51,24.55 51,24.46 51.04,24.42 51.04,24.38 51.08,24.33 51.08,24.29 51.08,24.24 51.08,24.2 
				51.08,24.16 51.04,24.16 51.04,24.11 51.04,24.07 51,24.02 50.95,23.98 50.91,23.94 			"/>
			<polygon class="st1" points="52.97,22.14 51.47,20.65 52.58,19.47 52.89,19.77 52.16,20.56 52.41,20.82 53.1,20.08 53.4,20.39 
				52.71,21.13 53.06,21.44 53.83,20.61 54.13,20.91 			"/>
			<path class="st1" d="M55.59,18.19l0.39-0.18v-0.04h0.04l0.04-0.04l0.04-0.04l0.04-0.04V17.8v-0.04v-0.04v-0.04l-0.04-0.04v-0.04
				h-0.04v-0.04h-0.04l-0.04-0.04h-0.04h-0.04l-0.04,0.04h-0.04h-0.04v0.04l-0.39,0.18L55.59,18.19z M55.68,19.55l-0.99-1.93
				l0.9-0.44l0.09-0.09h0.09l0.09-0.04l0.09-0.04h0.04h0.08h0.09h0.04h0.04l0.09,0.04h0.04l0.04,0.04l0.04,0.04l0.04,0.04l0.04,0.04
				l0.04,0.09v0.04l0.04,0.04v0.04v0.04v0.04v0.04v0.04v0.04v0.04v0.04v0.04l-0.04,0.04l-0.04,0.04v0.04h0.04h0.04h0.04l0.04,0.04
				h0.04l0.04,0.04l0.04,0.04l0.04,0.04l0.04,0.04v0.04l0.04,0.04v0.04h0.04v0.04h0.04v0.04l0.04,0.09v0.04h0.04l0.04,0.04v0.04
				h0.04h0.04v0.04l0.04,0.04l-0.52,0.26l-0.04-0.04l-0.04-0.04v-0.04l-0.04-0.04v-0.04l-0.04-0.04l-0.04-0.04l-0.04-0.04v-0.04
				l-0.04-0.04v-0.04l-0.04-0.04h-0.04v-0.04h-0.04h-0.04h-0.04h-0.04h-0.04h-0.04l-0.04,0.04l-0.3,0.17l0.34,0.7L55.68,19.55z"/>
			<polygon class="st1" points="59.63,17.8 59.33,16.13 58.73,16.27 58.64,15.83 60.36,15.48 60.45,15.91 59.84,16 60.19,17.71 			
				"/>
			<polygon class="st1" points="62.77,17.49 62.81,15.34 63.32,15.34 63.32,17.49 			"/>
			<polygon class="st1" points="65.43,17.84 66.07,15.78 67.53,16.27 67.4,16.66 66.46,16.35 66.33,16.79 67.15,17.06 67.02,17.49 
				66.2,17.23 65.94,17.98 			"/>
			<polygon class="st1" points="68.74,19.2 69.81,17.36 70.28,17.62 69.17,19.47 			"/>
			<polygon class="st1" points="70.88,20.82 72.34,19.29 73.55,20.39 73.25,20.74 72.47,19.95 72.22,20.25 72.9,20.91 72.6,21.26 
				71.91,20.56 71.57,20.87 72.39,21.66 72.09,21.96 			"/>
			<path class="st1" d="M74.45,24.73l0.13,0.26v0.09l0.04,0.04l0.04,0.04h0.04v0.04l0.04,0.04h0.04h0.04l0.08,0.04h0.04h0.04
				l0.04-0.04h0.09h0.04l0.09-0.04l0.04-0.04l0.09-0.04h0.04l0.09-0.04l0.04-0.04l0.04-0.04l0.04-0.04V24.9l0.04-0.04v-0.04
				l0.04-0.04v-0.04v-0.04l-0.04-0.04v-0.09v-0.04l-0.04-0.04l-0.13-0.26L74.45,24.73z M73.8,24.42l1.89-0.92l0.39,0.83l0.04,0.09
				l0.04,0.09l0.04,0.13v0.09v0.09v0.09l-0.04,0.09v0.09l-0.04,0.09l-0.04,0.09L76,25.34l-0.04,0.09l-0.09,0.04l-0.09,0.09
				l-0.09,0.04l-0.13,0.09l-0.13,0.04l-0.08,0.04l-0.13,0.04h-0.09h-0.13h-0.09h-0.08l-0.09-0.04h-0.09l-0.09-0.04l-0.09-0.09
				l-0.09-0.04l-0.04-0.09l-0.09-0.09l-0.04-0.13l-0.08-0.09L73.8,24.42z"/>
			<polygon class="st1" points="50.31,33.93 50.52,34.46 49.02,35.69 50.95,35.51 51.17,36.04 49.06,36.91 48.89,36.61 50.65,35.82 
				48.68,36.04 48.55,35.73 50.05,34.46 48.33,35.2 48.2,34.85 			"/>
			<path class="st1" d="M51.3,37.04l-1.03,0.22l0.39,0.61L51.3,37.04z M51.47,36.65L51.73,37l-1.5,1.93l-0.17-0.35l0.39-0.48
				l-0.47-0.75l-0.6,0.13l-0.21-0.35L51.47,36.65z"/>
			<polygon class="st1" points="52.03,37.66 52.28,37.97 51.73,39.94 53.01,38.75 53.23,39.02 51.55,40.6 51.3,40.29 51.85,38.32 
				50.57,39.46 50.35,39.19 			"/>
			<path class="st1" d="M53.74,40.16l-0.95,0.48l0.52,0.48L53.74,40.16z M53.87,39.72l0.3,0.31l-0.99,2.24L52.89,42l0.26-0.57
				l-0.64-0.66l-0.52,0.31l-0.3-0.31L53.87,39.72z"/>
			<polygon class="st1" points="55.89,42.17 55.59,41.95 55.63,41.91 55.63,41.87 55.63,41.82 55.63,41.78 55.63,41.74 55.63,41.69 
				55.63,41.6 55.63,41.56 55.59,41.52 55.59,41.47 55.55,41.43 55.51,41.43 55.51,41.38 55.46,41.34 55.42,41.3 55.38,41.25 
				55.29,41.21 55.2,41.17 55.16,41.17 55.08,41.12 54.99,41.12 54.95,41.12 54.86,41.12 54.82,41.17 54.73,41.17 54.65,41.21 
				54.6,41.25 54.52,41.3 54.47,41.34 54.39,41.43 54.35,41.52 54.3,41.56 54.22,41.65 54.17,41.74 54.13,41.82 54.13,41.91 
				54.09,42 54.09,42.09 54.09,42.13 54.09,42.22 54.09,42.31 54.13,42.39 54.13,42.44 54.17,42.52 54.22,42.57 54.26,42.61 
				54.35,42.66 54.39,42.74 54.43,42.74 54.52,42.79 54.56,42.83 54.6,42.83 54.69,42.83 54.73,42.83 54.82,42.83 54.86,42.83 
				54.9,42.83 54.99,42.79 55.03,42.79 55.08,42.74 55.12,42.7 55.2,42.66 55.25,42.61 55.29,42.57 54.73,42.22 54.95,41.91 
				55.76,42.48 55.03,43.53 54.86,43.4 54.95,43.09 54.9,43.14 54.86,43.14 54.82,43.14 54.73,43.14 54.69,43.14 54.65,43.14 
				54.6,43.14 54.56,43.14 54.52,43.14 54.43,43.14 54.39,43.09 54.35,43.09 54.3,43.09 54.26,43.05 54.22,43.01 54.17,43.01 
				54.05,42.92 54,42.83 53.92,42.74 53.87,42.66 53.79,42.57 53.79,42.48 53.74,42.39 53.7,42.26 53.7,42.17 53.7,42.04 
				53.7,41.95 53.74,41.82 53.79,41.69 53.83,41.6 53.87,41.47 53.96,41.38 54.05,41.25 54.13,41.17 54.22,41.08 54.3,40.99 
				54.39,40.95 54.47,40.86 54.56,40.81 54.69,40.81 54.78,40.77 54.9,40.77 54.99,40.77 55.12,40.77 55.2,40.81 55.33,40.86 
				55.42,40.9 55.51,40.99 55.59,41.03 55.68,41.08 55.76,41.17 55.81,41.25 55.85,41.3 55.89,41.38 55.94,41.43 55.98,41.52 
				55.98,41.6 56.02,41.69 56.02,41.78 56.02,41.87 55.98,41.91 55.98,42 55.94,42.09 			"/>
			<polygon class="st1" points="56.45,41.6 57.91,42.31 57.78,42.61 56.67,42.09 56.41,42.61 57.44,43.14 57.31,43.4 56.28,42.92 
				55.98,43.53 57.14,44.1 57.01,44.45 55.51,43.71 			"/>
			<polygon class="st1" points="57.91,42.35 58.43,42.48 58.51,44.41 59.5,42.74 60.02,42.92 59.46,45.15 59.11,45.07 59.59,43.23 
				58.56,44.94 58.21,44.8 58.13,42.83 57.65,44.67 57.31,44.58 			"/>
			<polygon class="st1" points="60.23,42.96 61.86,43.14 61.82,43.49 60.57,43.31 60.49,43.93 61.65,44.06 61.6,44.41 60.45,44.28 
				60.36,44.98 61.65,45.11 61.6,45.46 59.93,45.24 			"/>
			<polygon class="st1" points="61.95,43.14 62.33,43.14 63.41,44.85 63.41,43.09 63.75,43.09 63.8,45.42 63.41,45.42 62.29,43.71 
				62.33,45.46 61.99,45.46 			"/>
			<polygon class="st1" points="63.84,43.05 65.6,42.74 65.64,43.09 64.96,43.23 65.3,45.15 64.91,45.24 64.57,43.27 63.88,43.4 			
				"/>
			<polygon class="st1" points="68.78,42.22 68.44,42.39 68.39,42.35 68.39,42.31 68.35,42.26 68.31,42.26 68.31,42.22 68.26,42.17 
				68.22,42.17 68.18,42.17 68.13,42.13 68.09,42.13 68.05,42.13 68.01,42.13 67.96,42.17 67.92,42.17 67.83,42.17 67.79,42.22 
				67.75,42.22 67.7,42.26 67.66,42.31 67.62,42.35 67.58,42.39 67.58,42.44 67.53,42.44 67.53,42.48 67.53,42.52 67.53,42.57 
				67.53,42.61 67.53,42.66 67.58,42.7 67.58,42.74 67.62,42.79 67.66,42.79 67.7,42.83 67.75,42.83 67.79,42.83 67.83,42.83 
				67.92,42.83 67.96,42.83 68.05,42.83 68.09,42.83 68.18,42.79 68.31,42.79 68.44,42.79 68.52,42.74 68.61,42.74 68.69,42.74 
				68.78,42.74 68.82,42.74 68.91,42.79 68.95,42.79 68.99,42.83 69.04,42.88 69.08,42.92 69.12,42.96 69.17,43.01 69.17,43.05 
				69.21,43.09 69.25,43.18 69.25,43.27 69.25,43.31 69.29,43.4 69.25,43.49 69.25,43.53 69.25,43.62 69.21,43.66 69.17,43.75 
				69.12,43.84 69.08,43.88 68.99,43.93 68.95,44.02 68.86,44.06 68.78,44.1 68.69,44.15 68.61,44.19 68.52,44.19 68.39,44.23 
				68.31,44.23 68.22,44.23 68.18,44.23 68.09,44.23 68.01,44.23 67.92,44.19 67.88,44.15 67.79,44.1 67.75,44.06 67.66,44.02 
				67.62,43.93 67.58,43.88 67.53,43.8 67.88,43.62 67.92,43.66 67.92,43.71 67.96,43.75 68.01,43.8 68.05,43.8 68.09,43.84 
				68.13,43.84 68.18,43.88 68.22,43.88 68.26,43.88 68.31,43.88 68.35,43.88 68.44,43.88 68.48,43.88 68.52,43.84 68.61,43.8 
				68.65,43.8 68.65,43.75 68.69,43.75 68.74,43.71 68.78,43.71 68.78,43.66 68.82,43.62 68.86,43.58 68.86,43.53 68.86,43.49 
				68.86,43.45 68.86,43.4 68.86,43.36 68.86,43.31 68.82,43.27 68.78,43.23 68.74,43.23 68.74,43.18 68.69,43.18 68.65,43.18 
				68.65,43.14 68.61,43.14 68.56,43.14 68.52,43.14 68.48,43.14 68.44,43.14 68.35,43.14 68.31,43.14 68.22,43.18 68.18,43.18 
				68.13,43.18 68.05,43.23 67.92,43.23 67.83,43.23 67.79,43.23 67.7,43.23 67.62,43.23 67.58,43.18 67.53,43.18 67.49,43.14 
				67.4,43.14 67.36,43.09 67.32,43.05 67.32,43.01 67.28,42.96 67.23,42.92 67.19,42.88 67.19,42.79 67.15,42.7 67.15,42.66 
				67.15,42.57 67.15,42.52 67.19,42.44 67.19,42.39 67.23,42.31 67.28,42.26 67.32,42.17 67.36,42.13 67.4,42.09 67.49,42.04 
				67.53,42 67.62,41.95 67.7,41.91 67.79,41.87 67.88,41.82 67.96,41.82 68.05,41.82 68.13,41.78 68.18,41.82 68.26,41.82 
				68.35,41.82 68.39,41.87 68.48,41.91 68.52,41.95 68.56,42 68.65,42.04 68.69,42.09 68.74,42.17 			"/>
			<polygon class="st1" points="68.35,41.69 68.74,41.43 69.77,42.04 69.68,40.86 70.07,40.6 70.11,42.22 70.58,43.01 70.28,43.23 
				69.81,42.44 			"/>
			<polygon class="st1" points="71.74,40.07 71.44,40.29 71.4,40.29 71.4,40.25 71.36,40.2 71.31,40.2 71.27,40.16 71.23,40.16 
				71.18,40.16 71.14,40.16 71.1,40.16 71.05,40.16 71.01,40.16 70.97,40.16 70.93,40.2 70.88,40.2 70.84,40.25 70.8,40.29 
				70.75,40.29 70.71,40.33 70.71,40.38 70.67,40.38 70.67,40.42 70.63,40.46 70.63,40.51 70.58,40.55 70.58,40.6 70.58,40.64 
				70.58,40.68 70.63,40.68 70.63,40.73 70.63,40.77 70.67,40.77 70.67,40.81 70.71,40.81 70.71,40.86 70.75,40.86 70.8,40.86 
				70.84,40.9 70.88,40.9 70.93,40.9 70.97,40.86 71.01,40.86 71.1,40.86 71.14,40.81 71.23,40.77 71.31,40.77 71.4,40.73 
				71.53,40.68 71.61,40.64 71.7,40.6 71.79,40.6 71.87,40.6 71.91,40.6 72,40.6 72.04,40.6 72.09,40.6 72.13,40.64 72.17,40.64 
				72.26,40.68 72.3,40.73 72.34,40.77 72.34,40.81 72.43,40.9 72.43,40.95 72.47,41.03 72.47,41.08 72.52,41.17 72.52,41.25 
				72.52,41.3 72.47,41.38 72.47,41.47 72.43,41.56 72.39,41.6 72.34,41.69 72.3,41.74 72.21,41.82 72.17,41.87 72.09,41.95 72,42 
				71.91,42.04 71.83,42.09 71.74,42.13 71.66,42.17 71.61,42.17 71.53,42.17 71.44,42.17 71.36,42.17 71.27,42.17 71.23,42.13 
				71.14,42.09 71.1,42.04 71.01,42 70.93,41.91 70.88,41.87 71.18,41.65 71.23,41.69 71.27,41.69 71.27,41.74 71.31,41.78 
				71.36,41.78 71.4,41.78 71.48,41.82 71.53,41.82 71.57,41.82 71.61,41.82 71.66,41.78 71.7,41.78 71.79,41.74 71.83,41.74 
				71.87,41.69 71.91,41.65 71.96,41.65 72,41.6 72,41.56 72.04,41.52 72.09,41.52 72.09,41.47 72.13,41.43 72.13,41.38 
				72.13,41.34 72.13,41.3 72.13,41.25 72.13,41.21 72.13,41.17 72.09,41.17 72.09,41.12 72.04,41.12 72.04,41.08 72,41.08 
				72,41.03 71.96,41.03 71.91,41.03 71.91,40.99 71.87,40.99 71.83,40.99 71.79,40.99 71.74,40.99 71.7,40.99 71.66,41.03 
				71.61,41.03 71.57,41.08 71.48,41.08 71.44,41.12 71.4,41.12 71.36,41.12 71.36,41.17 71.31,41.17 71.23,41.21 71.14,41.21 
				71.05,41.25 71.01,41.25 70.93,41.3 70.84,41.3 70.8,41.3 70.75,41.3 70.67,41.25 70.63,41.25 70.58,41.25 70.54,41.21 
				70.5,41.17 70.45,41.12 70.41,41.08 70.37,41.03 70.33,40.99 70.28,40.9 70.24,40.86 70.24,40.77 70.24,40.73 70.24,40.64 
				70.24,40.6 70.28,40.51 70.28,40.46 70.33,40.38 70.37,40.29 70.41,40.25 70.45,40.16 70.5,40.11 70.58,40.07 70.67,39.98 
				70.71,39.94 70.8,39.89 70.88,39.85 70.93,39.81 71.01,39.81 71.1,39.81 71.18,39.81 71.23,39.81 71.31,39.81 71.4,39.81 
				71.44,39.85 71.53,39.85 71.57,39.89 71.61,39.94 71.7,40.03 			"/>
			<polygon class="st1" points="71.18,39.54 72.43,38.23 72.69,38.49 72.17,38.97 73.59,40.38 73.33,40.64 71.91,39.28 71.44,39.76 
							"/>
			<polygon class="st1" points="72.47,38.23 73.38,36.87 73.68,37.04 72.95,38.1 73.42,38.45 74.1,37.48 74.36,37.66 73.72,38.62 
				74.28,39.02 75.01,37.92 75.31,38.1 74.36,39.54 			"/>
			<polygon class="st1" points="73.5,36.61 73.76,36.12 75.61,36.56 74.32,35.16 74.58,34.68 76.55,35.82 76.38,36.17 74.75,35.2 
				76.12,36.65 75.91,36.96 74.02,36.52 75.65,37.48 75.48,37.79 			"/>
			<rect x="46.36" y="30.07" class="st0" width="4.85" height="0.39"/>
			<rect x="73.85" y="30.07" class="st0" width="4.85" height="0.39"/>
		</g>
	</g>
	<g>
		<defs>
			<rect id="SVGID_1_" x="2" y="2.81" width="33.66" height="50.56"/>
		</defs>
		<clipPath id="SVGID_2_">
			<use xlink:href="#SVGID_1_"  style="overflow:visible;"/>
		</clipPath>
		<g class="st2">
			<g>
				<path class="st3" d="M7.4,54.87c-3.8,0-6.9-3.09-6.9-6.9v-39c0-3.8,3.09-6.9,6.9-6.9h22.87c3.8,0,6.9,3.1,6.9,6.9v39
					c0,3.8-3.09,6.9-6.9,6.9H7.4z M4.32,47.97c0,1.7,1.38,3.08,3.08,3.08h22.87c1.7,0,3.08-1.38,3.08-3.08v-11.5
					c-4.46,2.29-9.42,3.5-14.49,3.5c-5.08,0-10.06-1.21-14.54-3.52V47.97z"/>
				<path class="st4" d="M30.27,3.58c2.98,0,5.4,2.42,5.4,5.4v39c0,2.98-2.42,5.4-5.4,5.4H7.4c-2.98,0-5.4-2.42-5.4-5.4v-39
					C2,6,4.42,3.58,7.4,3.58H30.27 M7.4,52.56h22.87c2.52,0,4.58-2.05,4.58-4.58V33.9c-4.64,2.9-10.12,4.57-15.99,4.57
					c-5.89,0-11.39-1.68-16.03-4.6v14.1C2.82,50.5,4.87,52.56,7.4,52.56 M30.27,0.58H7.4C2.77,0.58-1,4.35-1,8.98v39
					c0,4.63,3.77,8.4,8.4,8.4h22.87c4.63,0,8.4-3.77,8.4-8.4v-39C38.66,4.35,34.9,0.58,30.27,0.58L30.27,0.58z M7.4,49.56
					c-0.87,0-1.58-0.71-1.58-1.58v-9.16c4.1,1.75,8.52,2.66,13.03,2.66c4.5,0,8.91-0.9,12.99-2.64v9.14c0,0.87-0.71,1.58-1.58,1.58
					H7.4L7.4,49.56z"/>
			</g>
			<path class="st4" d="M34.85,33.9v14.08c0,2.53-2.06,4.58-4.58,4.58H7.4c-2.53,0-4.58-2.05-4.58-4.58v-14.1
				c4.65,2.91,10.14,4.6,16.03,4.6C24.72,38.47,30.21,36.8,34.85,33.9z"/>
			<g>
				<path class="st3" d="M8.36,46.69v-3.86h0.73v3.86H8.36z"/>
				<path class="st3" d="M9.84,46.43l0.16-0.6c0.14,0.07,0.3,0.14,0.48,0.19c0.18,0.05,0.34,0.08,0.49,0.08
					c0.23,0,0.4-0.04,0.52-0.11c0.12-0.07,0.18-0.18,0.18-0.31c0-0.09-0.05-0.18-0.14-0.26c-0.09-0.08-0.24-0.17-0.43-0.27
					l-0.17-0.1c-0.25-0.15-0.45-0.28-0.6-0.39c-0.15-0.11-0.28-0.24-0.39-0.39c-0.11-0.15-0.16-0.32-0.16-0.5
					c0-0.2,0.05-0.37,0.16-0.53c0.11-0.16,0.26-0.28,0.46-0.37c0.2-0.09,0.44-0.13,0.71-0.13c0.32,0,0.69,0.1,1.09,0.29l-0.24,0.59
					c-0.16-0.08-0.3-0.13-0.42-0.18c-0.13-0.04-0.26-0.06-0.41-0.06c-0.17,0-0.31,0.03-0.42,0.1c-0.11,0.07-0.16,0.16-0.16,0.29
					c0,0.11,0.04,0.2,0.13,0.27c0.09,0.07,0.22,0.17,0.42,0.28l0.18,0.1l0.16,0.1c0.22,0.13,0.4,0.24,0.53,0.34
					c0.13,0.1,0.24,0.21,0.33,0.35c0.09,0.14,0.13,0.3,0.13,0.48c0,0.21-0.06,0.39-0.17,0.55c-0.11,0.16-0.28,0.28-0.49,0.37
					c-0.22,0.09-0.48,0.14-0.78,0.14c-0.16,0-0.36-0.04-0.59-0.1C10.15,46.59,9.97,46.51,9.84,46.43z"/>
				<path class="st3" d="M14.65,42.74c0.39,0,0.73,0.09,1.01,0.26c0.29,0.18,0.51,0.41,0.65,0.72c0.15,0.3,0.22,0.64,0.22,1.01
					c0,0.39-0.08,0.74-0.24,1.05c-0.16,0.3-0.38,0.54-0.67,0.71c-0.29,0.17-0.62,0.26-0.99,0.27c-0.39,0-0.73-0.09-1.01-0.26
					c-0.29-0.18-0.5-0.41-0.65-0.71s-0.22-0.64-0.22-1.01c0-0.39,0.08-0.74,0.24-1.04c0.16-0.31,0.38-0.55,0.67-0.72
					C13.95,42.84,14.28,42.75,14.65,42.74z M13.53,44.77c0,0.27,0.05,0.51,0.14,0.72c0.09,0.21,0.22,0.37,0.39,0.49
					s0.37,0.17,0.59,0.17c0.21,0,0.4-0.05,0.58-0.16c0.17-0.1,0.31-0.26,0.41-0.48c0.1-0.21,0.15-0.47,0.15-0.78
					c0-0.26-0.05-0.5-0.14-0.71c-0.09-0.21-0.22-0.37-0.39-0.49c-0.17-0.12-0.37-0.18-0.59-0.18c-0.2,0-0.39,0.06-0.56,0.17
					c-0.17,0.12-0.31,0.28-0.41,0.49C13.58,44.25,13.53,44.49,13.53,44.77z"/>
				<path class="st3" d="M20.15,43.58c0.22,0.12,0.39,0.29,0.52,0.51c0.12,0.22,0.19,0.5,0.19,0.82c0,0.42-0.12,0.78-0.35,1.09
					c-0.23,0.31-0.52,0.56-0.86,0.74c-0.34,0.18-0.68,0.29-1.01,0.33l-0.1-0.61c0.7-0.19,1.18-0.47,1.43-0.84
					c-0.18,0.09-0.37,0.13-0.57,0.13c-0.23,0-0.45-0.05-0.63-0.16c-0.19-0.11-0.34-0.25-0.45-0.43c-0.11-0.18-0.16-0.37-0.16-0.59
					c0-0.23,0.05-0.43,0.16-0.61c0.11-0.18,0.25-0.32,0.44-0.42c0.19-0.1,0.4-0.15,0.63-0.15C19.67,43.41,19.93,43.46,20.15,43.58z
					 M18.99,45c0.11,0.12,0.26,0.18,0.43,0.18c0.29,0,0.54-0.08,0.75-0.23c0-0.32-0.07-0.55-0.21-0.71
					c-0.14-0.15-0.32-0.23-0.55-0.23c-0.17,0-0.31,0.05-0.42,0.16s-0.17,0.23-0.17,0.39C18.82,44.74,18.87,44.88,18.99,45z"/>
				<path class="st3" d="M21.14,45.07c0-0.32,0.07-0.6,0.2-0.86c0.14-0.25,0.32-0.45,0.56-0.6c0.24-0.14,0.51-0.22,0.81-0.22
					c0.3,0,0.57,0.07,0.81,0.21c0.24,0.14,0.43,0.34,0.56,0.59c0.13,0.25,0.2,0.54,0.2,0.85c0,0.33-0.07,0.62-0.2,0.88
					c-0.14,0.26-0.32,0.46-0.56,0.61c-0.24,0.15-0.51,0.22-0.81,0.22s-0.57-0.07-0.81-0.22c-0.24-0.15-0.43-0.35-0.56-0.6
					C21.2,45.68,21.14,45.4,21.14,45.07z M21.81,45.06c0,0.2,0.04,0.39,0.12,0.55C22,45.77,22.11,45.9,22.25,46
					c0.14,0.09,0.29,0.14,0.47,0.14c0.17,0,0.33-0.05,0.47-0.14c0.14-0.09,0.25-0.22,0.32-0.37c0.08-0.16,0.12-0.34,0.12-0.54
					s-0.04-0.38-0.12-0.54c-0.08-0.16-0.19-0.29-0.33-0.38c-0.14-0.09-0.29-0.14-0.47-0.14c-0.17,0-0.32,0.04-0.46,0.13
					c-0.14,0.09-0.25,0.21-0.32,0.37C21.85,44.68,21.81,44.86,21.81,45.06z"/>
				<path class="st3" d="M24.57,45.07c0-0.32,0.07-0.6,0.2-0.86c0.14-0.25,0.32-0.45,0.56-0.6c0.24-0.14,0.51-0.22,0.81-0.22
					c0.3,0,0.57,0.07,0.81,0.21c0.24,0.14,0.43,0.34,0.56,0.59c0.13,0.25,0.2,0.54,0.2,0.85c0,0.33-0.07,0.62-0.2,0.88
					c-0.14,0.26-0.32,0.46-0.56,0.61c-0.24,0.15-0.51,0.22-0.81,0.22c-0.3,0-0.57-0.07-0.81-0.22c-0.24-0.15-0.43-0.35-0.56-0.6
					C24.64,45.68,24.57,45.4,24.57,45.07z M25.25,45.06c0,0.2,0.04,0.39,0.12,0.55c0.08,0.16,0.19,0.29,0.32,0.39
					c0.14,0.09,0.29,0.14,0.47,0.14c0.17,0,0.33-0.05,0.47-0.14c0.14-0.09,0.25-0.22,0.32-0.37c0.08-0.16,0.12-0.34,0.12-0.54
					s-0.04-0.38-0.12-0.54c-0.08-0.16-0.19-0.29-0.33-0.38c-0.14-0.09-0.29-0.14-0.47-0.14c-0.17,0-0.32,0.04-0.46,0.13
					c-0.14,0.09-0.25,0.21-0.32,0.37C25.28,44.68,25.25,44.86,25.25,45.06z"/>
				<path class="st3" d="M28.85,46.69V44.3l-0.65,0.25L27.92,44l1.17-0.52h0.49v3.21H28.85z"/>
			</g>
			<g>
				<g>
					<g>
						<g>
							<path class="st4" d="M18.84,18.71c-1.43,0-2.6-1.17-2.6-2.6c0-1.43,1.17-2.6,2.6-2.6c1.43,0,2.6,1.17,2.6,2.6
								C21.44,17.54,20.27,18.71,18.84,18.71 M18.84,14.47c-0.9,0-1.64,0.73-1.64,1.64c0,0.9,0.73,1.64,1.64,1.64
								c0.9,0,1.64-0.73,1.64-1.64C20.47,15.21,19.74,14.47,18.84,14.47"/>
							<path class="st4" d="M14.07,20.2c-0.95-1.1-1.52-2.53-1.52-4.1c0-1.25,0.37-2.41,0.99-3.38l-0.77-0.58
								c-0.75,1.14-1.19,2.5-1.19,3.96c0,1.83,0.68,3.5,1.8,4.78L14.07,20.2z"/>
							<path class="st4" d="M13.39,11.33l0.68,0.68c0.21-0.24,0.44-0.47,0.68-0.68l-0.68-0.68C13.83,10.86,13.6,11.09,13.39,11.33"
								/>
							<path class="st4" d="M18.86,8.85c-1.47,0-2.84,0.44-3.98,1.19l0.58,0.77c0.98-0.63,2.15-1,3.4-1c1.64,0,3.17,0.62,4.33,1.73
								l0.84-0.52C22.67,9.63,20.84,8.85,18.86,8.85"/>
							<path class="st4" d="M21.75,18.8c-0.72,0.78-1.76,1.27-2.9,1.26c-2.18,0-3.96-1.78-3.96-3.96c0-2.18,1.78-3.96,3.96-3.96
								c0.81,0,1.58,0.25,2.23,0.69l0.88-0.54c-0.87-0.71-1.96-1.11-3.11-1.11c-2.71,0-4.92,2.2-4.93,4.92
								c0,2.71,2.2,4.92,4.92,4.93c1.47,0,2.78-0.64,3.69-1.66L21.75,18.8z"/>
							<path class="st4" d="M22.36,21.34c-1,0.67-2.21,1.07-3.51,1.07c-1.56,0-2.99-0.58-4.1-1.52l-0.68,0.68
								c1.28,1.12,2.95,1.8,4.78,1.81c1.52,0,2.94-0.47,4.11-1.27L22.36,21.34z"/>
							<path class="st4" d="M24.68,11.75l-2.81,1.74c0,0,0.95,1.1,0.95,2.62c0,0.69-0.18,1.35-0.5,1.91l0.78,0.57
								c0.43-0.73,0.67-1.58,0.67-2.48c0-0.81-0.2-1.61-0.58-2.32l1.17-0.73c0.51,0.93,0.78,1.97,0.78,3.04
								c0,1.83-0.79,3.48-2.04,4.63l0.6,0.76c1.47-1.33,2.41-3.25,2.41-5.39C26.11,13.53,24.68,11.75,24.68,11.75"/>
						</g>
						<g>
							<path class="st4" d="M13.68,26.98c-1.12,0-2.04,0.91-2.04,2.03c0,1.12,0.91,2.03,2.04,2.03c1.12,0,2.04-0.91,2.04-2.03
								C15.71,27.89,14.8,26.98,13.68,26.98 M13.67,30.2c-0.66,0-1.2-0.54-1.2-1.2c0-0.66,0.54-1.2,1.2-1.2c0.66,0,1.2,0.54,1.2,1.2
								C14.88,29.67,14.34,30.21,13.67,30.2"/>
							<path class="st4" d="M6.86,30.91l-0.85,0l0-3.47l0.85,0L6.86,30.91z M6.43,27c-0.29,0-0.52-0.23-0.52-0.52
								c0-0.29,0.23-0.52,0.52-0.51c0.29,0,0.52,0.23,0.52,0.52C6.95,26.77,6.72,27,6.43,27"/>
							<path class="st4" d="M18.43,26.97c-1.12,0-2.04,0.91-2.04,2.03c0,0,0,1.95,0,1.95l0.9,0l0-2.01c0-0.63,0.51-1.13,1.14-1.13
								c0.62,0,1.13,0.5,1.14,1.11l0,2.04l0.9,0l0-1.95C20.47,27.88,19.56,26.97,18.43,26.97"/>
							<path class="st4" d="M23.21,30.27L23.21,30.27c0,0-0.13,0.01-0.19,0.01c-0.37,0-0.54-0.09-0.54-0.61l0-1.99l0.76,0l0-0.66
								l-0.76,0l0-0.78l-0.9,0l0,0.78l-0.52,0l0,0.66l0.52,0l0,1.87c0,0.27,0.02,0.67,0.19,0.98c0.19,0.34,0.52,0.52,0.99,0.52
								c0.23,0,0.44-0.04,0.44-0.04L23.21,30.27z"/>
							<path class="st4" d="M9.69,31.05c-1.13,0-2.05-0.92-2.05-2.04c0-1.13,0.92-2.04,2.05-2.04c0.96,0,1.49,0.64,1.49,0.64
								l-0.54,0.67c0,0-0.34-0.46-0.94-0.46c-0.66,0-1.19,0.53-1.19,1.19s0.53,1.19,1.19,1.19c0.62,0,0.95-0.47,0.95-0.47l0.55,0.67
								C11.19,30.4,10.65,31.05,9.69,31.05"/>
							<path class="st4" d="M30.29,31.05c-1.13,0-2.05-0.92-2.05-2.04c0-1.13,0.92-2.04,2.05-2.04c0.96,0,1.49,0.64,1.49,0.64
								l-0.54,0.67c0,0-0.34-0.46-0.94-0.46c-0.66,0-1.19,0.53-1.19,1.19c0,0.65,0.53,1.19,1.19,1.19c0.62,0,0.95-0.47,0.95-0.47
								l0.55,0.67C31.79,30.4,31.25,31.05,30.29,31.05"/>
							<path class="st4" d="M25.71,26.95c-1.19,0-1.91,0.99-1.91,2.06c0,1.2,0.84,2.04,2.03,2.04c1.2,0,1.67-0.9,1.67-0.9
								l-0.61-0.46c0,0-0.31,0.55-1.04,0.55c-0.64,0-1.13-0.4-1.17-1l2.9,0c0,0,0.01-0.19,0.01-0.25
								C27.6,28.11,27.16,26.95,25.71,26.95 M24.71,28.58c0.07-0.52,0.49-0.86,1-0.86c0.53,0,0.92,0.34,0.97,0.86L24.71,28.58z"/>
						</g>
					</g>
				</g>
			</g>
		</g>
	</g>
</g>
</svg>
